<svg id="Capa_1" enable-background="new 0 0 511.577 511.577" height="512" viewBox="0 0 511.577 511.577" width="512" xmlns="http://www.w3.org/2000/svg"><g id="XMLID_1_"><path id="XMLID_3381_" d="m-41.261 359.871h356.665v30h-356.665z" fill="#f2e6e6" transform="matrix(.707 -.707 .707 .707 -224.927 206.722)"/><path id="XMLID_104_" d="m-36.14 372.234h356.665v15.516h-356.665z" fill="#ebd4ce" transform="matrix(.707 -.707 .707 .707 -227.048 211.842)"/><path id="XMLID_3387_" d="m510.871 163.738c-3.355-38.587-31.036-70.057-68.88-78.309l-13.306-2.901-2.902-13.306c-8.25-37.844-39.72-65.524-78.308-68.88-24.258-2.111-47.667 5.617-65.904 21.757s-28.752 38.433-29.607 62.771l-6.348 180.727 180.727-6.349c24.339-.855 46.632-11.37 62.771-29.606 16.14-18.237 23.867-41.643 21.757-65.904z" fill="#f33"/><path id="XMLID_3617_" d="m510.871 163.738c-3.355-38.587-31.036-70.057-68.88-78.309l-13.306-2.901-183.069 183.069 180.727-6.349c24.339-.855 46.632-11.37 62.771-29.606 16.14-18.237 23.867-41.643 21.757-65.904z" fill="#ea0016"/><path id="XMLID_96_" d="m287.289 223.924 1.744-65.593 29.99.746-.792 33.905 34.191-1.251 1.052 29.981z" fill="#ea0016"/><path id="XMLID_3795_" d="m318.231 192.982-30.942 30.942 66.185-2.212-1.052-29.981z" fill="#c30010"/></g></svg>